<svg width="24" height="24" viewBox="0 0 24 24" fill="none" xmlns="http://www.w3.org/2000/svg">
<rect width="24" height="24" fill="white"/>
<path d="M16.05 2H7.95C4.66391 2 2 4.66391 2 7.95V16.05C2 19.3361 4.66391 22 7.95 22H16.05C19.3361 22 22 19.3361 22 16.05V7.95C22 4.66391 19.3361 2 16.05 2Z" stroke="#8F95B2" stroke-width="1.5" stroke-linecap="round" stroke-linejoin="round"/>
<path d="M21.3901 5.34L5.91008 21.48L5.83008 21.6C6.36729 21.8154 6.93342 21.9502 7.51008 22L14.2301 15L19.4701 20.33C19.6037 20.4628 19.7819 20.5412 19.9701 20.55C20.2495 20.299 20.5071 20.0247 20.7401 19.73C20.735 19.5596 20.6632 19.398 20.5401 19.28L15.2701 13.92L21.9101 7C21.8196 6.42404 21.6443 5.86465 21.3901 5.34Z" fill="#8F95B2"/>
<path d="M8.69001 4.81999C7.89432 4.91802 7.15326 5.27601 6.58187 5.83836C6.01048 6.40071 5.64072 7.13596 5.53001 7.92999C5.46071 8.44585 5.50441 8.97062 5.65809 9.46792C5.81177 9.96522 6.07175 10.4232 6.42001 10.81L8.25001 12.87C8.35785 12.9899 8.4897 13.0857 8.637 13.1514C8.7843 13.217 8.94375 13.2509 9.10501 13.2509C9.26627 13.2509 9.42572 13.217 9.57302 13.1514C9.72032 13.0857 9.85217 12.9899 9.96001 12.87L11.8 10.81C12.3932 10.1515 12.721 9.29629 12.72 8.40999C12.7191 7.90057 12.6106 7.39709 12.4017 6.93246C12.1929 6.46783 11.8883 6.05251 11.5079 5.71366C11.1275 5.37481 10.6799 5.12006 10.1944 4.96606C9.70877 4.81207 9.19615 4.76229 8.69001 4.81999ZM9.11001 9.75999C8.843 9.75999 8.582 9.68081 8.35999 9.53247C8.13798 9.38413 7.96495 9.17329 7.86277 8.92661C7.76059 8.67993 7.73386 8.40849 7.78595 8.14661C7.83804 7.88474 7.96661 7.64419 8.15542 7.45539C8.34422 7.26659 8.58476 7.13802 8.84664 7.08593C9.10851 7.03384 9.37995 7.06057 9.62663 7.16275C9.87331 7.26493 10.0842 7.43796 10.2325 7.65997C10.3808 7.88197 10.46 8.14298 10.46 8.40999C10.46 8.76803 10.3178 9.11141 10.0646 9.36458C9.81143 9.61775 9.46805 9.75999 9.11001 9.75999Z" fill="#8F95B2"/>
</svg>
