<svg width="21" height="20" viewBox="0 0 21 20" fill="none" xmlns="http://www.w3.org/2000/svg">
<path d="M11.995 10L14.9867 7.03333C15.1458 6.87199 15.2343 6.65404 15.2328 6.42744C15.2312 6.20083 15.1397 5.98413 14.9783 5.825C14.817 5.66587 14.599 5.57735 14.3724 5.57891C14.1458 5.58047 13.9291 5.67199 13.77 5.83333L10.82 8.825L7.87 5.89166C7.71387 5.73645 7.50266 5.64934 7.2825 5.64934C7.06235 5.64934 6.85114 5.73645 6.695 5.89166C6.61689 5.96913 6.5549 6.0613 6.51259 6.16285C6.47028 6.2644 6.4485 6.37332 6.4485 6.48333C6.4485 6.59334 6.47028 6.70226 6.51259 6.80381C6.5549 6.90536 6.61689 6.99753 6.695 7.075L9.645 10L6.65333 12.9667C6.4942 13.128 6.40568 13.3459 6.40725 13.5726C6.40881 13.7992 6.50033 14.0159 6.66167 14.175C6.82301 14.3341 7.04095 14.4226 7.26756 14.4211C7.49417 14.4195 7.71087 14.328 7.87 14.1667L10.82 11.175L13.77 14.1083C13.9261 14.2635 14.1373 14.3507 14.3575 14.3507C14.5777 14.3507 14.7889 14.2635 14.945 14.1083C15.0231 14.0309 15.0851 13.9387 15.1274 13.8371C15.1697 13.7356 15.1915 13.6267 15.1915 13.5167C15.1915 13.4067 15.1697 13.2977 15.1274 13.1962C15.0851 13.0946 15.0231 13.0025 14.945 12.925L11.995 10Z" fill="#7E8299"/>
</svg>
