<svg width="48" height="48" viewBox="0 0 48 48" fill="none" xmlns="http://www.w3.org/2000/svg">
<rect width="48" height="48" rx="24" fill="#F4F6FA"/>
<path d="M32.6601 26.2C31.8343 24.9578 31.4118 23.4911 31.4501 22V21.85C31.4477 20.2775 30.861 18.762 29.804 17.5978C28.747 16.4336 27.295 15.7038 25.7301 15.55V14.38C25.7301 14.1811 25.6511 13.9903 25.5104 13.8497C25.3698 13.709 25.179 13.63 24.9801 13.63C24.7812 13.63 24.5904 13.709 24.4498 13.8497C24.3091 13.9903 24.2301 14.1811 24.2301 14.38V15.59C23.6712 15.6549 23.1232 15.7927 22.6001 16C21.4529 16.4784 20.4765 17.2916 19.7986 18.3334C19.1207 19.3753 18.7727 20.5973 18.8001 21.84C18.8124 23.4228 18.3106 24.9668 17.3701 26.24L16.7001 27.16C16.3825 27.5857 16.1898 28.0915 16.1435 28.6206C16.0971 29.1497 16.1991 29.6813 16.4379 30.1557C16.6766 30.6302 17.0428 31.0288 17.4954 31.3068C17.9479 31.5849 18.469 31.7314 19.0001 31.73H22.2801V32.06C22.3687 32.7065 22.6885 33.2991 23.1802 33.7281C23.672 34.1571 24.3025 34.3934 24.9551 34.3934C25.6077 34.3934 26.2382 34.1571 26.7299 33.7281C27.2217 33.2991 27.5415 32.7065 27.6301 32.06V31.73H31.0001C31.5219 31.7227 32.0322 31.5753 32.4774 31.3031C32.9227 31.0309 33.2865 30.644 33.5309 30.1829C33.7752 29.7218 33.8911 29.2034 33.8663 28.6822C33.8416 28.1609 33.6771 27.6559 33.3901 27.22L32.6601 26.2ZM26.1601 31.89C26.1038 32.1627 25.9552 32.4076 25.7393 32.5834C25.5234 32.7593 25.2535 32.8553 24.9751 32.8553C24.6967 32.8553 24.4268 32.7593 24.2109 32.5834C23.995 32.4076 23.8464 32.1627 23.7901 31.89V31.73H26.1601V31.89ZM31.0001 30.23H19.0001C18.7473 30.2291 18.4998 30.1583 18.2848 30.0254C18.0698 29.8926 17.8957 29.7028 17.7819 29.4772C17.668 29.2515 17.6188 28.9988 17.6397 28.7469C17.6605 28.495 17.7507 28.2538 17.9001 28.05L18.5801 27.13C19.7202 25.5775 20.3239 23.696 20.3001 21.77C20.287 20.8421 20.5513 19.9314 21.059 19.1546C21.5668 18.3778 22.2949 17.7704 23.1501 17.41C23.7863 17.1565 24.4652 17.0275 25.1501 17.03C25.7851 17.0247 26.4149 17.1452 27.0031 17.3846C27.5913 17.624 28.1263 17.9774 28.5772 18.4246C29.0281 18.8718 29.3859 19.4038 29.6302 19.99C29.8744 20.5762 30.0001 21.205 30.0001 21.84V22C29.9735 23.7755 30.4823 25.5178 31.4601 27L32.1401 28C32.2975 28.2403 32.3777 28.5229 32.3701 28.81C32.3768 28.9941 32.3463 29.1776 32.2805 29.3496C32.2147 29.5217 32.1148 29.6787 31.9869 29.8112C31.859 29.9438 31.7057 30.0492 31.5362 30.1211C31.3666 30.1931 31.1843 30.2301 31.0001 30.23Z" fill="#7E8299"/>
</svg>
