<svg width="24" height="24" viewBox="0 0 24 24" fill="none" xmlns="http://www.w3.org/2000/svg">
<g clip-path="url(#clip0_1_174)">
<path d="M5 17C5 17.5304 5.21071 18.0391 5.58579 18.4142C5.96086 18.7893 6.46957 19 7 19C7.53043 19 8.03914 18.7893 8.41421 18.4142C8.78929 18.0391 9 17.5304 9 17C9 16.4696 8.78929 15.9609 8.41421 15.5858C8.03914 15.2107 7.53043 15 7 15C6.46957 15 5.96086 15.2107 5.58579 15.5858C5.21071 15.9609 5 16.4696 5 17Z" stroke="#8F95B2" stroke-width="1.5" stroke-linecap="round" stroke-linejoin="round"/>
<path d="M15 17C15 17.5304 15.2107 18.0391 15.5858 18.4142C15.9609 18.7893 16.4696 19 17 19C17.5304 19 18.0391 18.7893 18.4142 18.4142C18.7893 18.0391 19 17.5304 19 17C19 16.4696 18.7893 15.9609 18.4142 15.5858C18.0391 15.2107 17.5304 15 17 15C16.4696 15 15.9609 15.2107 15.5858 15.5858C15.2107 15.9609 15 16.4696 15 17Z" stroke="#8F95B2" stroke-width="1.5" stroke-linecap="round" stroke-linejoin="round"/>
<path d="M5 17H3V12.0909M3 12.0909L5 8H14L18 12.0909M3 12.0909H18M18 12.0909H19C19.5304 12.0909 20.0391 12.2633 20.4142 12.5702C20.7893 12.8771 21 13.2933 21 13.7273V17H19M15 17H9M12 12.0909V8" stroke="#8F95B2" stroke-width="1.5" stroke-linecap="round" stroke-linejoin="round"/>
<path d="M7.28571 5L6 8H12L10.9544 5.04557C10.9544 5.04557 8.74026 5 7.28571 5Z" stroke="#8F95B2" stroke-width="1.5"/>
</g>
<defs>
<clipPath id="clip0_1_174">
<rect width="24" height="24" fill="white"/>
</clipPath>
</defs>
</svg>
