<svg width="21" height="20" viewBox="0 0 21 20" fill="none" xmlns="http://www.w3.org/2000/svg">
<path d="M12.8284 15.8333C12.7181 15.8329 12.609 15.8105 12.5075 15.7676C12.4059 15.7247 12.3139 15.6621 12.2367 15.5833L7.30336 10.625C7.14815 10.4689 7.06104 10.2576 7.06104 10.0375C7.06104 9.81733 7.14815 9.60612 7.30336 9.44999L12.2367 4.50832C12.3936 4.3514 12.6064 4.26324 12.8284 4.26324C13.0503 4.26324 13.2631 4.3514 13.42 4.50832C13.5769 4.66524 13.6651 4.87807 13.6651 5.09999C13.6651 5.32191 13.5769 5.53473 13.42 5.69165L9.07003 9.99999L13.42 14.35C13.5607 14.4614 13.6616 14.6151 13.7079 14.7885C13.7541 14.9618 13.7432 15.1454 13.6767 15.3121C13.6103 15.4787 13.4918 15.6194 13.339 15.7133C13.1861 15.8072 13.007 15.8493 12.8284 15.8333Z" fill="#7E8299"/>
</svg>
