<svg width="21" height="20" viewBox="0 0 21 20" fill="none" xmlns="http://www.w3.org/2000/svg">
<path d="M9.47828 15.7667C9.36861 15.7673 9.25989 15.7463 9.15836 15.7048C9.05683 15.6633 8.96448 15.6022 8.88661 15.525C8.73141 15.3689 8.64429 15.1577 8.64429 14.9375C8.64429 14.7174 8.73141 14.5061 8.88661 14.35L13.2283 10L8.88661 5.65001C8.75009 5.49059 8.67875 5.28553 8.68686 5.0758C8.69496 4.86607 8.7819 4.66712 8.93031 4.51871C9.07872 4.37029 9.27767 4.28335 9.4874 4.27525C9.69713 4.26715 9.9022 4.33849 10.0616 4.47501L14.9866 9.40834C15.0638 9.48621 15.125 9.57856 15.1664 9.68009C15.2079 9.78162 15.2289 9.89034 15.2283 10C15.2252 10.2206 15.1389 10.432 14.9866 10.5917L10.0449 15.525C9.89386 15.675 9.69111 15.7615 9.47828 15.7667Z" fill="#7E8299"/>
</svg>
