<svg width="21" height="20" viewBox="0 0 21 20" fill="none" xmlns="http://www.w3.org/2000/svg">
<path d="M8.97828 15.7666C8.86861 15.7673 8.75989 15.7463 8.65836 15.7048C8.55683 15.6633 8.46448 15.6022 8.38661 15.525C8.23141 15.3688 8.14429 15.1576 8.14429 14.9375C8.14429 14.7173 8.23141 14.5061 8.38661 14.35L12.7283 9.99998L8.38661 5.64998C8.25009 5.49056 8.17875 5.2855 8.18686 5.07577C8.19496 4.86604 8.2819 4.66709 8.43031 4.51868C8.57872 4.37026 8.77767 4.28332 8.9874 4.27522C9.19713 4.26712 9.4022 4.33846 9.56161 4.47498L14.4866 9.40831C14.5638 9.48618 14.625 9.57852 14.6664 9.68006C14.7079 9.78159 14.7289 9.89031 14.7283 9.99998C14.7252 10.2206 14.6389 10.4319 14.4866 10.5916L9.54495 15.525C9.39386 15.675 9.19111 15.7614 8.97828 15.7666Z" fill="white"/>
</svg>
