<svg width="291" height="72" viewBox="0 0 291 72" fill="none" xmlns="http://www.w3.org/2000/svg">
<path d="M1 8C1 3.58172 4.58172 0 9 0H273C277.418 0 281 3.58172 281 8V24H1V8Z" fill="#F2F2F2" fill-opacity="0.8"/>
<path d="M79.1713 17V6.81818H85.4853V8.14062H80.7076V11.2429H85.0328V12.5604H80.7076V17H79.1713ZM87.1594 17V9.36364H88.5962V10.5767H88.6758C88.815 10.1657 89.0603 9.84257 89.4116 9.60724C89.7662 9.36861 90.1673 9.24929 90.6147 9.24929C90.7075 9.24929 90.8169 9.2526 90.9428 9.25923C91.0721 9.26586 91.1732 9.27415 91.2461 9.28409V10.706C91.1864 10.6894 91.0804 10.6712 90.9279 10.6513C90.7754 10.6281 90.623 10.6165 90.4705 10.6165C90.1192 10.6165 89.806 10.6911 89.5309 10.8402C89.2591 10.986 89.0437 11.1899 88.8846 11.4517C88.7255 11.7102 88.646 12.0052 88.646 12.3366V17H87.1594ZM95.5502 17.1541C94.7979 17.1541 94.1499 16.9934 93.6064 16.6719C93.0661 16.3471 92.6485 15.8913 92.3535 15.3047C92.0618 14.7147 91.916 14.0237 91.916 13.2315C91.916 12.4493 92.0618 11.7599 92.3535 11.1634C92.6485 10.5668 93.0595 10.1011 93.5865 9.76633C94.1168 9.43158 94.7366 9.2642 95.4458 9.2642C95.8767 9.2642 96.2943 9.33546 96.6987 9.47798C97.103 9.6205 97.466 9.84422 97.7875 10.1491C98.109 10.4541 98.3625 10.8501 98.5481 11.3374C98.7337 11.8213 98.8265 12.4096 98.8265 13.1023V13.6293H92.7562V12.5156H97.3699C97.3699 12.1245 97.2903 11.7782 97.1312 11.4766C96.9721 11.1716 96.7484 10.9313 96.46 10.7557C96.175 10.58 95.8403 10.4922 95.4558 10.4922C95.0382 10.4922 94.6736 10.5949 94.362 10.8004C94.0538 11.0026 93.8152 11.2678 93.6461 11.5959C93.4804 11.9207 93.3975 12.2737 93.3975 12.6548V13.5249C93.3975 14.0353 93.487 14.4695 93.666 14.8274C93.8483 15.1854 94.1019 15.4588 94.4267 15.6477C94.7515 15.8333 95.131 15.9261 95.5652 15.9261C95.8469 15.9261 96.1038 15.8864 96.3358 15.8068C96.5678 15.724 96.7683 15.6013 96.9373 15.4389C97.1064 15.2765 97.2356 15.076 97.3251 14.8374L98.7321 15.0909C98.6194 15.5052 98.4172 15.8681 98.1255 16.1797C97.8372 16.4879 97.4743 16.7282 97.0368 16.9006C96.6026 17.0696 96.1071 17.1541 95.5502 17.1541ZM105.631 19.8636V15.8118H105.542C105.452 15.9742 105.323 16.1598 105.154 16.3686C104.988 16.5774 104.76 16.7597 104.468 16.9155C104.176 17.0713 103.799 17.1491 103.335 17.1491C102.718 17.1491 102.168 16.9917 101.684 16.6768C101.203 16.3587 100.826 15.9062 100.55 15.3196C100.279 14.7296 100.143 14.022 100.143 13.1967C100.143 12.3714 100.28 11.6655 100.555 11.0788C100.834 10.4922 101.215 10.0431 101.699 9.73153C102.183 9.41998 102.731 9.2642 103.344 9.2642C103.818 9.2642 104.2 9.34375 104.488 9.50284C104.78 9.65862 105.005 9.84091 105.164 10.0497C105.326 10.2585 105.452 10.4425 105.542 10.6016H105.666V9.36364H107.118V19.8636H105.631ZM103.663 15.8814C104.09 15.8814 104.451 15.7687 104.746 15.5433C105.045 15.3146 105.27 14.9981 105.423 14.5938C105.578 14.1894 105.656 13.7187 105.656 13.1818C105.656 12.6515 105.58 12.1875 105.428 11.7898C105.275 11.392 105.051 11.0821 104.756 10.8601C104.461 10.638 104.097 10.527 103.663 10.527C103.215 10.527 102.842 10.643 102.544 10.875C102.246 11.107 102.02 11.4235 101.868 11.8246C101.719 12.2256 101.644 12.678 101.644 13.1818C101.644 13.6922 101.72 14.1513 101.873 14.5589C102.025 14.9666 102.251 15.2898 102.549 15.5284C102.851 15.7637 103.222 15.8814 103.663 15.8814ZM113.954 13.8331V9.36364H115.445V17H113.984V15.6776H113.904C113.728 16.0852 113.447 16.425 113.059 16.6967C112.674 16.9652 112.196 17.0994 111.622 17.0994C111.132 17.0994 110.697 16.9917 110.32 16.7763C109.945 16.5575 109.65 16.2344 109.435 15.8068C109.223 15.3793 109.116 14.8506 109.116 14.2209V9.36364H110.603V14.0419C110.603 14.5623 110.747 14.9766 111.036 15.2848C111.324 15.593 111.698 15.7472 112.159 15.7472C112.438 15.7472 112.714 15.6776 112.989 15.5384C113.268 15.3991 113.498 15.1887 113.68 14.907C113.866 14.6252 113.957 14.2673 113.954 13.8331ZM120.734 17.1541C119.981 17.1541 119.334 16.9934 118.79 16.6719C118.25 16.3471 117.832 15.8913 117.537 15.3047C117.245 14.7147 117.1 14.0237 117.1 13.2315C117.1 12.4493 117.245 11.7599 117.537 11.1634C117.832 10.5668 118.243 10.1011 118.77 9.76633C119.3 9.43158 119.92 9.2642 120.629 9.2642C121.06 9.2642 121.478 9.33546 121.882 9.47798C122.287 9.6205 122.65 9.84422 122.971 10.1491C123.293 10.4541 123.546 10.8501 123.732 11.3374C123.917 11.8213 124.01 12.4096 124.01 13.1023V13.6293H117.94V12.5156H122.553C122.553 12.1245 122.474 11.7782 122.315 11.4766C122.156 11.1716 121.932 10.9313 121.644 10.7557C121.359 10.58 121.024 10.4922 120.639 10.4922C120.222 10.4922 119.857 10.5949 119.546 10.8004C119.237 11.0026 118.999 11.2678 118.83 11.5959C118.664 11.9207 118.581 12.2737 118.581 12.6548V13.5249C118.581 14.0353 118.671 14.4695 118.85 14.8274C119.032 15.1854 119.285 15.4588 119.61 15.6477C119.935 15.8333 120.315 15.9261 120.749 15.9261C121.03 15.9261 121.287 15.8864 121.519 15.8068C121.751 15.724 121.952 15.6013 122.121 15.4389C122.29 15.2765 122.419 15.076 122.509 14.8374L123.916 15.0909C123.803 15.5052 123.601 15.8681 123.309 16.1797C123.021 16.4879 122.658 16.7282 122.22 16.9006C121.786 17.0696 121.291 17.1541 120.734 17.1541ZM127.146 12.4659V17H125.659V9.36364H127.086V10.6065H127.181C127.356 10.2022 127.632 9.87737 128.006 9.6321C128.384 9.38684 128.859 9.2642 129.433 9.2642C129.953 9.2642 130.409 9.37358 130.8 9.59233C131.191 9.80777 131.494 10.1293 131.71 10.5568C131.925 10.9844 132.033 11.513 132.033 12.1428V17H130.547V12.3217C130.547 11.7682 130.402 11.3357 130.114 11.0241C129.826 10.7093 129.43 10.5518 128.926 10.5518C128.581 10.5518 128.275 10.6264 128.006 10.7756C127.741 10.9247 127.53 11.1435 127.375 11.4318C127.222 11.7169 127.146 12.0616 127.146 12.4659ZM137.243 17.1541C136.504 17.1541 135.868 16.9867 135.334 16.652C134.804 16.3139 134.396 15.8482 134.111 15.255C133.826 14.6617 133.684 13.9822 133.684 13.2166C133.684 12.4411 133.829 11.7566 134.121 11.1634C134.413 10.5668 134.824 10.1011 135.354 9.76633C135.884 9.43158 136.509 9.2642 137.228 9.2642C137.808 9.2642 138.325 9.37192 138.779 9.58736C139.234 9.79948 139.6 10.0978 139.878 10.4822C140.16 10.8667 140.327 11.3158 140.38 11.8295H138.934C138.854 11.4716 138.672 11.1634 138.387 10.9048C138.105 10.6463 137.727 10.517 137.253 10.517C136.839 10.517 136.476 10.6264 136.164 10.8452C135.856 11.0606 135.616 11.3688 135.444 11.7699C135.271 12.1676 135.185 12.6383 135.185 13.1818C135.185 13.7386 135.27 14.2192 135.439 14.6236C135.608 15.0279 135.846 15.3411 136.154 15.5632C136.466 15.7853 136.832 15.8963 137.253 15.8963C137.535 15.8963 137.79 15.8449 138.019 15.7422C138.251 15.6361 138.445 15.4853 138.6 15.2898C138.76 15.0942 138.871 14.8589 138.934 14.5838H140.38C140.327 15.0777 140.167 15.5185 139.898 15.9062C139.63 16.294 139.27 16.599 138.819 16.821C138.372 17.0431 137.846 17.1541 137.243 17.1541ZM145.261 17.1541C144.509 17.1541 143.861 16.9934 143.317 16.6719C142.777 16.3471 142.359 15.8913 142.064 15.3047C141.773 14.7147 141.627 14.0237 141.627 13.2315C141.627 12.4493 141.773 11.7599 142.064 11.1634C142.359 10.5668 142.77 10.1011 143.297 9.76633C143.828 9.43158 144.448 9.2642 145.157 9.2642C145.588 9.2642 146.005 9.33546 146.41 9.47798C146.814 9.6205 147.177 9.84422 147.498 10.1491C147.82 10.4541 148.073 10.8501 148.259 11.3374C148.445 11.8213 148.537 12.4096 148.537 13.1023V13.6293H142.467V12.5156H147.081C147.081 12.1245 147.001 11.7782 146.842 11.4766C146.683 11.1716 146.459 10.9313 146.171 10.7557C145.886 10.58 145.551 10.4922 145.167 10.4922C144.749 10.4922 144.385 10.5949 144.073 10.8004C143.765 11.0026 143.526 11.2678 143.357 11.5959C143.191 11.9207 143.108 12.2737 143.108 12.6548V13.5249C143.108 14.0353 143.198 14.4695 143.377 14.8274C143.559 15.1854 143.813 15.4588 144.138 15.6477C144.462 15.8333 144.842 15.9261 145.276 15.9261C145.558 15.9261 145.815 15.8864 146.047 15.8068C146.279 15.724 146.479 15.6013 146.648 15.4389C146.817 15.2765 146.947 15.076 147.036 14.8374L148.443 15.0909C148.33 15.5052 148.128 15.8681 147.836 16.1797C147.548 16.4879 147.185 16.7282 146.748 16.9006C146.314 17.0696 145.818 17.1541 145.261 17.1541ZM154.011 17V6.81818H155.547V15.6776H160.161V17H154.011ZM165.085 17.1541C164.333 17.1541 163.685 16.9934 163.142 16.6719C162.601 16.3471 162.184 15.8913 161.889 15.3047C161.597 14.7147 161.451 14.0237 161.451 13.2315C161.451 12.4493 161.597 11.7599 161.889 11.1634C162.184 10.5668 162.595 10.1011 163.122 9.76633C163.652 9.43158 164.272 9.2642 164.981 9.2642C165.412 9.2642 165.829 9.33546 166.234 9.47798C166.638 9.6205 167.001 9.84422 167.323 10.1491C167.644 10.4541 167.898 10.8501 168.083 11.3374C168.269 11.8213 168.362 12.4096 168.362 13.1023V13.6293H162.291V12.5156H166.905C166.905 12.1245 166.825 11.7782 166.666 11.4766C166.507 11.1716 166.284 10.9313 165.995 10.7557C165.71 10.58 165.375 10.4922 164.991 10.4922C164.573 10.4922 164.209 10.5949 163.897 10.8004C163.589 11.0026 163.35 11.2678 163.181 11.5959C163.016 11.9207 162.933 12.2737 162.933 12.6548V13.5249C162.933 14.0353 163.022 14.4695 163.201 14.8274C163.383 15.1854 163.637 15.4588 163.962 15.6477C164.287 15.8333 164.666 15.9261 165.1 15.9261C165.382 15.9261 165.639 15.8864 165.871 15.8068C166.103 15.724 166.303 15.6013 166.472 15.4389C166.642 15.2765 166.771 15.076 166.86 14.8374L168.267 15.0909C168.155 15.5052 167.952 15.8681 167.661 16.1797C167.372 16.4879 167.009 16.7282 166.572 16.9006C166.138 17.0696 165.642 17.1541 165.085 17.1541ZM173.213 20.0227C172.606 20.0227 172.084 19.9432 171.647 19.7841C171.212 19.625 170.858 19.4145 170.583 19.1527C170.308 18.8909 170.102 18.6042 169.966 18.2926L171.244 17.7656C171.333 17.9115 171.453 18.0656 171.602 18.228C171.754 18.3937 171.96 18.5346 172.218 18.6506C172.48 18.7666 172.817 18.8246 173.228 18.8246C173.791 18.8246 174.257 18.687 174.625 18.4119C174.993 18.1402 175.176 17.706 175.176 17.1094V15.608H175.082C174.993 15.7704 174.863 15.951 174.694 16.1499C174.529 16.3487 174.3 16.5211 174.008 16.6669C173.717 16.8127 173.337 16.8857 172.87 16.8857C172.266 16.8857 171.723 16.7448 171.239 16.4631C170.758 16.178 170.377 15.7588 170.096 15.2053C169.817 14.6484 169.678 13.964 169.678 13.152C169.678 12.34 169.815 11.6439 170.091 11.0639C170.369 10.4839 170.75 10.0398 171.234 9.73153C171.718 9.41998 172.266 9.2642 172.88 9.2642C173.354 9.2642 173.736 9.34375 174.028 9.50284C174.32 9.65862 174.547 9.84091 174.709 10.0497C174.875 10.2585 175.002 10.4425 175.092 10.6016H175.201V9.36364H176.658V17.169C176.658 17.8253 176.506 18.3639 176.201 18.7848C175.896 19.2057 175.483 19.5173 174.963 19.7195C174.446 19.9216 173.862 20.0227 173.213 20.0227ZM173.198 15.6527C173.625 15.6527 173.987 15.5533 174.282 15.3544C174.58 15.1522 174.805 14.8639 174.958 14.4893C175.114 14.1115 175.191 13.6591 175.191 13.1321C175.191 12.6184 175.115 12.166 174.963 11.7749C174.81 11.3838 174.587 11.0788 174.292 10.8601C173.997 10.638 173.632 10.527 173.198 10.527C172.75 10.527 172.377 10.643 172.079 10.875C171.781 11.1037 171.556 11.4152 171.403 11.8097C171.254 12.2041 171.179 12.6449 171.179 13.1321C171.179 13.6326 171.256 14.0717 171.408 14.4496C171.56 14.8274 171.786 15.1224 172.084 15.3345C172.386 15.5466 172.757 15.6527 173.198 15.6527ZM181.943 17.1541C181.19 17.1541 180.542 16.9934 179.999 16.6719C179.459 16.3471 179.041 15.8913 178.746 15.3047C178.454 14.7147 178.309 14.0237 178.309 13.2315C178.309 12.4493 178.454 11.7599 178.746 11.1634C179.041 10.5668 179.452 10.1011 179.979 9.76633C180.509 9.43158 181.129 9.2642 181.838 9.2642C182.269 9.2642 182.687 9.33546 183.091 9.47798C183.496 9.6205 183.859 9.84422 184.18 10.1491C184.502 10.4541 184.755 10.8501 184.941 11.3374C185.126 11.8213 185.219 12.4096 185.219 13.1023V13.6293H179.149V12.5156H183.762C183.762 12.1245 183.683 11.7782 183.524 11.4766C183.365 11.1716 183.141 10.9313 182.853 10.7557C182.568 10.58 182.233 10.4922 181.848 10.4922C181.431 10.4922 181.066 10.5949 180.755 10.8004C180.446 11.0026 180.208 11.2678 180.039 11.5959C179.873 11.9207 179.79 12.2737 179.79 12.6548V13.5249C179.79 14.0353 179.88 14.4695 180.059 14.8274C180.241 15.1854 180.494 15.4588 180.819 15.6477C181.144 15.8333 181.524 15.9261 181.958 15.9261C182.239 15.9261 182.496 15.8864 182.728 15.8068C182.96 15.724 183.161 15.6013 183.33 15.4389C183.499 15.2765 183.628 15.076 183.718 14.8374L185.125 15.0909C185.012 15.5052 184.81 15.8681 184.518 16.1797C184.23 16.4879 183.867 16.7282 183.429 16.9006C182.995 17.0696 182.5 17.1541 181.943 17.1541ZM188.355 12.4659V17H186.868V9.36364H188.295V10.6065H188.39C188.565 10.2022 188.84 9.87737 189.215 9.6321C189.593 9.38684 190.068 9.2642 190.642 9.2642C191.162 9.2642 191.618 9.37358 192.009 9.59233C192.4 9.80777 192.703 10.1293 192.919 10.5568C193.134 10.9844 193.242 11.513 193.242 12.1428V17H191.756V12.3217C191.756 11.7682 191.611 11.3357 191.323 11.0241C191.035 10.7093 190.639 10.5518 190.135 10.5518C189.79 10.5518 189.483 10.6264 189.215 10.7756C188.95 10.9247 188.739 11.1435 188.584 11.4318C188.431 11.7169 188.355 12.0616 188.355 12.4659ZM198.094 17.1491C197.478 17.1491 196.928 16.9917 196.444 16.6768C195.963 16.3587 195.585 15.9062 195.31 15.3196C195.038 14.7296 194.903 14.022 194.903 13.1967C194.903 12.3714 195.04 11.6655 195.315 11.0788C195.594 10.4922 195.975 10.0431 196.459 9.73153C196.943 9.41998 197.491 9.2642 198.104 9.2642C198.578 9.2642 198.959 9.34375 199.248 9.50284C199.539 9.65862 199.765 9.84091 199.924 10.0497C200.086 10.2585 200.212 10.4425 200.302 10.6016H200.391V6.81818H201.878V17H200.426V15.8118H200.302C200.212 15.9742 200.083 16.1598 199.914 16.3686C199.748 16.5774 199.519 16.7597 199.228 16.9155C198.936 17.0713 198.558 17.1491 198.094 17.1491ZM198.422 15.8814C198.85 15.8814 199.211 15.7687 199.506 15.5433C199.805 15.3146 200.03 14.9981 200.182 14.5938C200.338 14.1894 200.416 13.7187 200.416 13.1818C200.416 12.6515 200.34 12.1875 200.187 11.7898C200.035 11.392 199.811 11.0821 199.516 10.8601C199.221 10.638 198.857 10.527 198.422 10.527C197.975 10.527 197.602 10.643 197.304 10.875C197.006 11.107 196.78 11.4235 196.628 11.8246C196.479 12.2256 196.404 12.678 196.404 13.1818C196.404 13.6922 196.48 14.1513 196.633 14.5589C196.785 14.9666 197.01 15.2898 197.309 15.5284C197.61 15.7637 197.982 15.8814 198.422 15.8814Z" fill="#696F8C"/>
<rect x="1" y="24" width="280" height="20" fill="url(#paint0_linear_32_76)"/>
<line x1="1.5" y1="24" x2="1.5" y2="52" stroke="#2E8DFF"/>
<line x1="103.5" y1="24" x2="103.5" y2="52" stroke="#65B30D"/>
<line x1="223.5" y1="24" x2="223.5" y2="52" stroke="#F7C001"/>
<line x1="280.5" y1="24" x2="280.5" y2="52" stroke="#FF0201"/>
<mask id="path-8-outside-1_32_76" maskUnits="userSpaceOnUse" x="268" y="56" width="23" height="12" fill="black">
<rect fill="white" x="268" y="56" width="23" height="12"/>
<path d="M273.151 57.2727V66H271.83V58.5938H271.778L269.69 59.9574V58.696L271.868 57.2727H273.151ZM278.55 66.1449C277.876 66.142 277.301 65.9645 276.824 65.6122C276.347 65.2599 275.982 64.7472 275.729 64.0739C275.476 63.4006 275.349 62.5895 275.349 61.6406C275.349 60.6946 275.476 59.8864 275.729 59.2159C275.984 58.5455 276.351 58.0341 276.828 57.6818C277.308 57.3295 277.882 57.1534 278.55 57.1534C279.217 57.1534 279.79 57.331 280.267 57.6861C280.744 58.0384 281.109 58.5497 281.362 59.2202C281.618 59.8878 281.746 60.6946 281.746 61.6406C281.746 62.5923 281.619 63.4048 281.366 64.0781C281.114 64.7486 280.749 65.2614 280.271 65.6165C279.794 65.9688 279.22 66.1449 278.55 66.1449ZM278.55 65.0071C279.141 65.0071 279.602 64.7188 279.935 64.142C280.27 63.5653 280.438 62.7315 280.438 61.6406C280.438 60.9162 280.361 60.304 280.207 59.804C280.057 59.3011 279.839 58.9205 279.555 58.6619C279.274 58.4006 278.939 58.2699 278.55 58.2699C277.962 58.2699 277.5 58.5597 277.165 59.1392C276.83 59.7187 276.661 60.5526 276.658 61.6406C276.658 62.3679 276.733 62.983 276.884 63.4858C277.037 63.9858 277.254 64.3651 277.536 64.6236C277.817 64.8793 278.155 65.0071 278.55 65.0071ZM286.296 66.1449C285.623 66.142 285.047 65.9645 284.57 65.6122C284.093 65.2599 283.728 64.7472 283.475 64.0739C283.222 63.4006 283.096 62.5895 283.096 61.6406C283.096 60.6946 283.222 59.8864 283.475 59.2159C283.73 58.5455 284.097 58.0341 284.574 57.6818C285.054 57.3295 285.628 57.1534 286.296 57.1534C286.963 57.1534 287.536 57.331 288.013 57.6861C288.49 58.0384 288.855 58.5497 289.108 59.2202C289.364 59.8878 289.492 60.6946 289.492 61.6406C289.492 62.5923 289.365 63.4048 289.113 64.0781C288.86 64.7486 288.495 65.2614 288.017 65.6165C287.54 65.9688 286.966 66.1449 286.296 66.1449ZM286.296 65.0071C286.887 65.0071 287.348 64.7188 287.681 64.142C288.016 63.5653 288.184 62.7315 288.184 61.6406C288.184 60.9162 288.107 60.304 287.953 59.804C287.803 59.3011 287.586 58.9205 287.301 58.6619C287.02 58.4006 286.685 58.2699 286.296 58.2699C285.708 58.2699 285.246 58.5597 284.911 59.1392C284.576 59.7187 284.407 60.5526 284.404 61.6406C284.404 62.3679 284.479 62.983 284.63 63.4858C284.783 63.9858 285 64.3651 285.282 64.6236C285.563 64.8793 285.901 65.0071 286.296 65.0071Z"/>
</mask>
<path d="M273.151 57.2727V66H271.83V58.5938H271.778L269.69 59.9574V58.696L271.868 57.2727H273.151ZM278.55 66.1449C277.876 66.142 277.301 65.9645 276.824 65.6122C276.347 65.2599 275.982 64.7472 275.729 64.0739C275.476 63.4006 275.349 62.5895 275.349 61.6406C275.349 60.6946 275.476 59.8864 275.729 59.2159C275.984 58.5455 276.351 58.0341 276.828 57.6818C277.308 57.3295 277.882 57.1534 278.55 57.1534C279.217 57.1534 279.79 57.331 280.267 57.6861C280.744 58.0384 281.109 58.5497 281.362 59.2202C281.618 59.8878 281.746 60.6946 281.746 61.6406C281.746 62.5923 281.619 63.4048 281.366 64.0781C281.114 64.7486 280.749 65.2614 280.271 65.6165C279.794 65.9688 279.22 66.1449 278.55 66.1449ZM278.55 65.0071C279.141 65.0071 279.602 64.7188 279.935 64.142C280.27 63.5653 280.438 62.7315 280.438 61.6406C280.438 60.9162 280.361 60.304 280.207 59.804C280.057 59.3011 279.839 58.9205 279.555 58.6619C279.274 58.4006 278.939 58.2699 278.55 58.2699C277.962 58.2699 277.5 58.5597 277.165 59.1392C276.83 59.7187 276.661 60.5526 276.658 61.6406C276.658 62.3679 276.733 62.983 276.884 63.4858C277.037 63.9858 277.254 64.3651 277.536 64.6236C277.817 64.8793 278.155 65.0071 278.55 65.0071ZM286.296 66.1449C285.623 66.142 285.047 65.9645 284.57 65.6122C284.093 65.2599 283.728 64.7472 283.475 64.0739C283.222 63.4006 283.096 62.5895 283.096 61.6406C283.096 60.6946 283.222 59.8864 283.475 59.2159C283.73 58.5455 284.097 58.0341 284.574 57.6818C285.054 57.3295 285.628 57.1534 286.296 57.1534C286.963 57.1534 287.536 57.331 288.013 57.6861C288.49 58.0384 288.855 58.5497 289.108 59.2202C289.364 59.8878 289.492 60.6946 289.492 61.6406C289.492 62.5923 289.365 63.4048 289.113 64.0781C288.86 64.7486 288.495 65.2614 288.017 65.6165C287.54 65.9688 286.966 66.1449 286.296 66.1449ZM286.296 65.0071C286.887 65.0071 287.348 64.7188 287.681 64.142C288.016 63.5653 288.184 62.7315 288.184 61.6406C288.184 60.9162 288.107 60.304 287.953 59.804C287.803 59.3011 287.586 58.9205 287.301 58.6619C287.02 58.4006 286.685 58.2699 286.296 58.2699C285.708 58.2699 285.246 58.5597 284.911 59.1392C284.576 59.7187 284.407 60.5526 284.404 61.6406C284.404 62.3679 284.479 62.983 284.63 63.4858C284.783 63.9858 285 64.3651 285.282 64.6236C285.563 64.8793 285.901 65.0071 286.296 65.0071Z" fill="#696F8C"/>
<path d="M273.151 57.2727H274.151V56.2727H273.151V57.2727ZM273.151 66V67H274.151V66H273.151ZM271.83 66H270.83V67H271.83V66ZM271.83 58.5938H272.83V57.5938H271.83V58.5938ZM271.778 58.5938V57.5938H271.481L271.232 57.7565L271.778 58.5938ZM269.69 59.9574H268.69V61.8048L270.237 60.7947L269.69 59.9574ZM269.69 58.696L269.143 57.859L268.69 58.155V58.696H269.69ZM271.868 57.2727V56.2727H271.57L271.321 56.4357L271.868 57.2727ZM272.151 57.2727V66H274.151V57.2727H272.151ZM273.151 65H271.83V67H273.151V65ZM272.83 66V58.5938H270.83V66H272.83ZM271.83 57.5938H271.778V59.5938H271.83V57.5938ZM271.232 57.7565L269.144 59.1201L270.237 60.7947L272.325 59.431L271.232 57.7565ZM270.69 59.9574V58.696H268.69V59.9574H270.69ZM270.237 59.5331L272.415 58.1098L271.321 56.4357L269.143 57.859L270.237 59.5331ZM271.868 58.2727H273.151V56.2727H271.868V58.2727ZM278.55 66.1449L278.545 67.1449H278.55V66.1449ZM275.729 64.0739L276.665 63.7223L276.665 63.7223L275.729 64.0739ZM275.729 59.2159L274.794 58.8596L274.793 58.863L275.729 59.2159ZM276.828 57.6818L276.237 56.8756L276.234 56.8772L276.828 57.6818ZM280.267 57.6861L279.67 58.4884L279.673 58.4907L280.267 57.6861ZM281.362 59.2202L280.427 59.573L280.428 59.5778L281.362 59.2202ZM281.366 64.0781L282.302 64.431L282.303 64.4297L281.366 64.0781ZM280.271 65.6165L280.865 66.4211L280.868 66.4188L280.271 65.6165ZM279.935 64.142L279.07 63.6395L279.068 63.6427L279.935 64.142ZM280.207 59.804L279.249 60.0908L279.251 60.0973L280.207 59.804ZM279.555 58.6619L278.875 59.3945L278.882 59.4015L279.555 58.6619ZM277.165 59.1392L276.299 58.6385L276.299 58.6385L277.165 59.1392ZM276.658 61.6406L275.658 61.638V61.6406H276.658ZM276.884 63.4858L275.926 63.7727L275.928 63.7791L276.884 63.4858ZM277.536 64.6236L276.859 65.3598L276.863 65.3635L277.536 64.6236ZM278.554 65.1449C278.063 65.1428 277.702 65.0172 277.418 64.8076L276.23 66.4168C276.901 66.9118 277.69 67.1413 278.545 67.1449L278.554 65.1449ZM277.418 64.8076C277.126 64.5925 276.864 64.2535 276.665 63.7223L274.793 64.4254C275.099 65.2409 275.567 65.9274 276.23 66.4168L277.418 64.8076ZM276.665 63.7223C276.465 63.1909 276.349 62.5056 276.349 61.6406H274.349C274.349 62.6734 274.486 63.6102 274.793 64.4254L276.665 63.7223ZM276.349 61.6406C276.349 60.7787 276.465 60.0967 276.664 59.5688L274.793 58.863C274.486 59.676 274.349 60.6105 274.349 61.6406H276.349ZM276.663 59.5722C276.865 59.0429 277.128 58.7031 277.422 58.4864L276.234 56.8772C275.573 57.3651 275.104 58.048 274.794 58.8596L276.663 59.5722ZM277.42 58.4881C277.708 58.2767 278.068 58.1534 278.55 58.1534V56.1534C277.696 56.1534 276.909 56.3823 276.237 56.8756L277.42 58.4881ZM278.55 58.1534C279.03 58.1534 279.386 58.2772 279.67 58.4884L280.864 56.8838C280.193 56.3848 279.405 56.1534 278.55 56.1534V58.1534ZM279.673 58.4907C279.966 58.7066 280.227 59.0451 280.427 59.573L282.298 58.8673C281.991 58.0544 281.523 57.3701 280.861 56.8815L279.673 58.4907ZM280.428 59.5778C280.629 60.101 280.746 60.7795 280.746 61.6406H282.746C282.746 60.6097 282.607 59.6746 282.296 58.8625L280.428 59.5778ZM280.746 61.6406C280.746 62.5089 280.63 63.1955 280.43 63.7266L282.303 64.4297C282.609 63.6142 282.746 62.6758 282.746 61.6406H280.746ZM280.431 63.7253C280.232 64.2536 279.969 64.5949 279.674 64.8142L280.868 66.4188C281.528 65.9278 281.996 65.2436 282.302 64.431L280.431 63.7253ZM279.677 64.8119C279.394 65.021 279.036 65.1449 278.55 65.1449V67.1449C279.405 67.1449 280.194 66.9165 280.865 66.4211L279.677 64.8119ZM278.55 66.0071C279.549 66.0071 280.317 65.4807 280.801 64.6414L279.068 63.6427C278.887 63.9568 278.732 64.0071 278.55 64.0071V66.0071ZM280.799 64.6446C281.263 63.8472 281.438 62.8077 281.438 61.6406H279.438C279.438 62.6553 279.277 63.2835 279.07 63.6395L280.799 64.6446ZM281.438 61.6406C281.438 60.852 281.355 60.1344 281.163 59.5107L279.251 60.0973C279.367 60.4736 279.438 60.9803 279.438 61.6406H281.438ZM281.165 59.5171C280.981 58.9016 280.687 58.34 280.228 57.9223L278.882 59.4015C278.992 59.5009 279.133 59.7006 279.249 60.0908L281.165 59.5171ZM280.236 57.9294C279.767 57.4935 279.188 57.2699 278.55 57.2699V59.2699C278.69 59.2699 278.781 59.3076 278.875 59.3945L280.236 57.9294ZM278.55 57.2699C277.549 57.2699 276.783 57.8013 276.299 58.6385L278.03 59.6399C278.217 59.318 278.374 59.2699 278.55 59.2699V57.2699ZM276.299 58.6385C275.838 59.4363 275.661 60.473 275.658 61.638L277.658 61.6432C277.66 60.6321 277.821 60.0012 278.03 59.6399L276.299 58.6385ZM275.658 61.6406C275.658 62.4306 275.739 63.1486 275.926 63.7726L277.841 63.1989C277.727 62.8173 277.658 62.3052 277.658 61.6406H275.658ZM275.928 63.7791C276.115 64.3888 276.407 64.9447 276.859 65.3598L278.212 63.8874C278.101 63.7854 277.959 63.5828 277.84 63.1925L275.928 63.7791ZM276.863 65.3635C277.336 65.7936 277.917 66.0071 278.55 66.0071V64.0071C278.393 64.0071 278.298 63.965 278.208 63.8836L276.863 65.3635ZM286.296 66.1449L286.292 67.1449H286.296V66.1449ZM283.475 64.0739L284.411 63.7223L284.411 63.7223L283.475 64.0739ZM283.475 59.2159L282.54 58.8596L282.539 58.863L283.475 59.2159ZM284.574 57.6818L283.983 56.8756L283.98 56.8772L284.574 57.6818ZM288.013 57.6861L287.416 58.4884L287.419 58.4907L288.013 57.6861ZM289.108 59.2202L288.173 59.573L288.174 59.5778L289.108 59.2202ZM289.113 64.0781L290.048 64.431L290.049 64.4297L289.113 64.0781ZM288.017 65.6165L288.611 66.4211L288.614 66.4188L288.017 65.6165ZM287.681 64.142L286.816 63.6395L286.814 63.6427L287.681 64.142ZM287.953 59.804L286.995 60.0908L286.997 60.0973L287.953 59.804ZM287.301 58.6619L286.621 59.3945L286.628 59.4015L287.301 58.6619ZM284.911 59.1392L284.045 58.6385L284.045 58.6385L284.911 59.1392ZM284.404 61.6406L283.404 61.638V61.6406H284.404ZM284.63 63.4858L283.672 63.7727L283.674 63.7791L284.63 63.4858ZM285.282 64.6236L284.605 65.3598L284.609 65.3635L285.282 64.6236ZM286.3 65.1449C285.809 65.1428 285.448 65.0172 285.164 64.8076L283.976 66.4168C284.647 66.9118 285.436 67.1413 286.292 67.1449L286.3 65.1449ZM285.164 64.8076C284.872 64.5925 284.61 64.2535 284.411 63.7223L282.539 64.4254C282.845 65.2409 283.313 65.9274 283.976 66.4168L285.164 64.8076ZM284.411 63.7223C284.211 63.1909 284.096 62.5056 284.096 61.6406H282.096C282.096 62.6734 282.232 63.6102 282.539 64.4254L284.411 63.7223ZM284.096 61.6406C284.096 60.7787 284.211 60.0967 284.41 59.5688L282.539 58.863C282.233 59.676 282.096 60.6105 282.096 61.6406H284.096ZM284.409 59.5722C284.611 59.0429 284.875 58.7031 285.168 58.4864L283.98 56.8772C283.319 57.3651 282.85 58.048 282.54 58.8596L284.409 59.5722ZM285.166 58.4881C285.454 58.2767 285.814 58.1534 286.296 58.1534V56.1534C285.442 56.1534 284.655 56.3823 283.983 56.8756L285.166 58.4881ZM286.296 58.1534C286.776 58.1534 287.132 58.2772 287.416 58.4884L288.61 56.8838C287.939 56.3848 287.151 56.1534 286.296 56.1534V58.1534ZM287.419 58.4907C287.712 58.7066 287.974 59.0451 288.173 59.573L290.044 58.8673C289.737 58.0544 289.269 57.3701 288.607 56.8815L287.419 58.4907ZM288.174 59.5778C288.375 60.101 288.492 60.7795 288.492 61.6406H290.492C290.492 60.6097 290.353 59.6746 290.042 58.8625L288.174 59.5778ZM288.492 61.6406C288.492 62.5089 288.376 63.1955 288.176 63.7266L290.049 64.4297C290.355 63.6142 290.492 62.6758 290.492 61.6406H288.492ZM288.177 63.7253C287.978 64.2536 287.715 64.5949 287.42 64.8142L288.614 66.4188C289.274 65.9278 289.742 65.2436 290.048 64.431L288.177 63.7253ZM287.424 64.8119C287.14 65.021 286.782 65.1449 286.296 65.1449V67.1449C287.151 67.1449 287.94 66.9165 288.611 66.4211L287.424 64.8119ZM286.296 66.0071C287.296 66.0071 288.063 65.4807 288.547 64.6414L286.814 63.6427C286.633 63.9568 286.478 64.0071 286.296 64.0071V66.0071ZM288.545 64.6446C289.009 63.8472 289.184 62.8077 289.184 61.6406H287.184C287.184 62.6553 287.023 63.2835 286.816 63.6395L288.545 64.6446ZM289.184 61.6406C289.184 60.852 289.101 60.1344 288.909 59.5107L286.997 60.0973C287.113 60.4736 287.184 60.9803 287.184 61.6406H289.184ZM288.911 59.5171C288.727 58.9016 288.434 58.34 287.975 57.9223L286.628 59.4015C286.738 59.5009 286.879 59.7006 286.996 60.0908L288.911 59.5171ZM287.982 57.9294C287.513 57.4935 286.934 57.2699 286.296 57.2699V59.2699C286.436 59.2699 286.527 59.3076 286.621 59.3945L287.982 57.9294ZM286.296 57.2699C285.295 57.2699 284.53 57.8013 284.045 58.6385L285.776 59.6399C285.963 59.318 286.12 59.2699 286.296 59.2699V57.2699ZM284.045 58.6385C283.584 59.4363 283.407 60.473 283.404 61.638L285.404 61.6432C285.406 60.6321 285.567 60.0012 285.776 59.6399L284.045 58.6385ZM283.404 61.6406C283.404 62.4306 283.485 63.1486 283.672 63.7726L285.588 63.1989C285.473 62.8173 285.404 62.3052 285.404 61.6406H283.404ZM283.674 63.7791C283.861 64.3888 284.153 64.9447 284.605 65.3598L285.958 63.8874C285.847 63.7854 285.705 63.5828 285.586 63.1925L283.674 63.7791ZM284.609 65.3635C285.082 65.7936 285.663 66.0071 286.296 66.0071V64.0071C286.139 64.0071 286.044 63.965 285.954 63.8836L284.609 65.3635Z" fill="white" mask="url(#path-8-outside-1_32_76)"/>
<mask id="path-10-outside-2_32_76" maskUnits="userSpaceOnUse" x="215" y="56" width="17" height="12" fill="black">
<rect fill="white" x="215" y="56" width="17" height="12"/>
<path d="M219.72 66.1193C219.186 66.1193 218.706 66.017 218.28 65.8125C217.857 65.6051 217.518 65.321 217.266 64.9602C217.013 64.5994 216.878 64.1875 216.861 63.7244H218.139C218.17 64.0994 218.337 64.4077 218.638 64.6491C218.939 64.8906 219.3 65.0114 219.72 65.0114C220.055 65.0114 220.352 64.9347 220.611 64.7812C220.872 64.625 221.077 64.4105 221.224 64.1378C221.375 63.8651 221.45 63.554 221.45 63.2045C221.45 62.8494 221.374 62.5327 221.22 62.2543C221.067 61.9759 220.855 61.7571 220.585 61.598C220.318 61.4389 220.011 61.358 219.665 61.3551C219.401 61.3551 219.135 61.4006 218.868 61.4915C218.601 61.5824 218.385 61.7017 218.22 61.8494L217.014 61.6705L217.504 57.2727H222.303V58.402H218.599L218.322 60.8438H218.374C218.544 60.679 218.77 60.5412 219.051 60.4304C219.335 60.3196 219.639 60.2642 219.963 60.2642C220.494 60.2642 220.967 60.3906 221.382 60.6435C221.8 60.8963 222.128 61.2415 222.366 61.679C222.608 62.1136 222.727 62.6136 222.724 63.179C222.727 63.7443 222.599 64.2486 222.341 64.6918C222.085 65.1349 221.73 65.4844 221.276 65.7401C220.824 65.9929 220.305 66.1193 219.72 66.1193ZM227.319 66.1449C226.646 66.142 226.071 65.9645 225.593 65.6122C225.116 65.2599 224.751 64.7472 224.498 64.0739C224.245 63.4006 224.119 62.5895 224.119 61.6406C224.119 60.6946 224.245 59.8864 224.498 59.2159C224.754 58.5455 225.12 58.0341 225.598 57.6818C226.078 57.3295 226.652 57.1534 227.319 57.1534C227.987 57.1534 228.559 57.331 229.037 57.6861C229.514 58.0384 229.879 58.5497 230.132 59.2202C230.387 59.8878 230.515 60.6946 230.515 61.6406C230.515 62.5923 230.389 63.4048 230.136 64.0781C229.883 64.7486 229.518 65.2614 229.041 65.6165C228.564 65.9688 227.99 66.1449 227.319 66.1449ZM227.319 65.0071C227.91 65.0071 228.372 64.7188 228.704 64.142C229.039 63.5653 229.207 62.7315 229.207 61.6406C229.207 60.9162 229.13 60.304 228.977 59.804C228.826 59.3011 228.609 58.9205 228.325 58.6619C228.044 58.4006 227.708 58.2699 227.319 58.2699C226.731 58.2699 226.27 58.5597 225.934 59.1392C225.599 59.7187 225.43 60.5526 225.427 61.6406C225.427 62.3679 225.502 62.983 225.653 63.4858C225.806 63.9858 226.024 64.3651 226.305 64.6236C226.586 64.8793 226.924 65.0071 227.319 65.0071Z"/>
</mask>
<path d="M219.72 66.1193C219.186 66.1193 218.706 66.017 218.28 65.8125C217.857 65.6051 217.518 65.321 217.266 64.9602C217.013 64.5994 216.878 64.1875 216.861 63.7244H218.139C218.17 64.0994 218.337 64.4077 218.638 64.6491C218.939 64.8906 219.3 65.0114 219.72 65.0114C220.055 65.0114 220.352 64.9347 220.611 64.7812C220.872 64.625 221.077 64.4105 221.224 64.1378C221.375 63.8651 221.45 63.554 221.45 63.2045C221.45 62.8494 221.374 62.5327 221.22 62.2543C221.067 61.9759 220.855 61.7571 220.585 61.598C220.318 61.4389 220.011 61.358 219.665 61.3551C219.401 61.3551 219.135 61.4006 218.868 61.4915C218.601 61.5824 218.385 61.7017 218.22 61.8494L217.014 61.6705L217.504 57.2727H222.303V58.402H218.599L218.322 60.8438H218.374C218.544 60.679 218.77 60.5412 219.051 60.4304C219.335 60.3196 219.639 60.2642 219.963 60.2642C220.494 60.2642 220.967 60.3906 221.382 60.6435C221.8 60.8963 222.128 61.2415 222.366 61.679C222.608 62.1136 222.727 62.6136 222.724 63.179C222.727 63.7443 222.599 64.2486 222.341 64.6918C222.085 65.1349 221.73 65.4844 221.276 65.7401C220.824 65.9929 220.305 66.1193 219.72 66.1193ZM227.319 66.1449C226.646 66.142 226.071 65.9645 225.593 65.6122C225.116 65.2599 224.751 64.7472 224.498 64.0739C224.245 63.4006 224.119 62.5895 224.119 61.6406C224.119 60.6946 224.245 59.8864 224.498 59.2159C224.754 58.5455 225.12 58.0341 225.598 57.6818C226.078 57.3295 226.652 57.1534 227.319 57.1534C227.987 57.1534 228.559 57.331 229.037 57.6861C229.514 58.0384 229.879 58.5497 230.132 59.2202C230.387 59.8878 230.515 60.6946 230.515 61.6406C230.515 62.5923 230.389 63.4048 230.136 64.0781C229.883 64.7486 229.518 65.2614 229.041 65.6165C228.564 65.9688 227.99 66.1449 227.319 66.1449ZM227.319 65.0071C227.91 65.0071 228.372 64.7188 228.704 64.142C229.039 63.5653 229.207 62.7315 229.207 61.6406C229.207 60.9162 229.13 60.304 228.977 59.804C228.826 59.3011 228.609 58.9205 228.325 58.6619C228.044 58.4006 227.708 58.2699 227.319 58.2699C226.731 58.2699 226.27 58.5597 225.934 59.1392C225.599 59.7187 225.43 60.5526 225.427 61.6406C225.427 62.3679 225.502 62.983 225.653 63.4858C225.806 63.9858 226.024 64.3651 226.305 64.6236C226.586 64.8793 226.924 65.0071 227.319 65.0071Z" fill="#696F8C"/>
<path d="M218.28 65.8125L217.84 66.7105L217.847 66.714L218.28 65.8125ZM217.266 64.9602L216.447 65.5341L216.447 65.5341L217.266 64.9602ZM216.861 63.7244V62.7244H215.823L215.861 63.7612L216.861 63.7244ZM218.139 63.7244L219.136 63.6414L219.059 62.7244H218.139V63.7244ZM218.638 64.6491L218.012 65.4293L218.012 65.4293L218.638 64.6491ZM220.611 64.7812L221.121 65.6412L221.124 65.6396L220.611 64.7812ZM221.224 64.1378L220.349 63.6545L220.345 63.6615L221.224 64.1378ZM221.22 62.2543L222.096 61.7717L222.096 61.7717L221.22 62.2543ZM220.585 61.598L220.073 62.4571L220.077 62.4595L220.585 61.598ZM219.665 61.3551L219.673 60.3551H219.665V61.3551ZM218.868 61.4915L218.546 60.5448L218.546 60.5448L218.868 61.4915ZM218.22 61.8494L218.073 62.8386L218.538 62.9076L218.888 62.594L218.22 61.8494ZM217.014 61.6705L216.02 61.5597L215.914 62.5181L216.867 62.6596L217.014 61.6705ZM217.504 57.2727V56.2727H216.61L216.51 57.162L217.504 57.2727ZM222.303 57.2727H223.303V56.2727H222.303V57.2727ZM222.303 58.402V59.402H223.303V58.402H222.303ZM218.599 58.402V57.402H217.706L217.606 58.2893L218.599 58.402ZM218.322 60.8438L217.329 60.731L217.203 61.8438H218.322V60.8438ZM218.374 60.8438V61.8438H218.778L219.069 61.5627L218.374 60.8438ZM219.051 60.4304L218.688 59.4987L218.685 59.5L219.051 60.4304ZM221.382 60.6435L220.862 61.4973L220.864 61.4989L221.382 60.6435ZM222.366 61.679L221.489 62.1578L221.492 62.1646L222.366 61.679ZM222.724 63.179L221.724 63.174L221.724 63.184L222.724 63.179ZM222.341 64.6918L221.477 64.1879L221.475 64.192L222.341 64.6918ZM221.276 65.7401L221.764 66.6127L221.766 66.6116L221.276 65.7401ZM219.72 65.1193C219.316 65.1193 218.987 65.0427 218.713 64.911L217.847 66.714C218.425 66.9914 219.056 67.1193 219.72 67.1193V65.1193ZM218.72 64.9145C218.437 64.776 218.234 64.5992 218.085 64.3863L216.447 65.5341C216.803 66.0429 217.276 66.4342 217.84 66.7105L218.72 64.9145ZM218.085 64.3863C217.948 64.1918 217.87 63.9685 217.86 63.6876L215.861 63.7612C215.885 64.4065 216.077 65.007 216.447 65.5341L218.085 64.3863ZM216.861 64.7244H218.139V62.7244H216.861V64.7244ZM217.143 63.8075C217.197 64.4638 217.503 65.0212 218.012 65.4293L219.263 63.869C219.17 63.7942 219.144 63.7351 219.136 63.6414L217.143 63.8075ZM218.012 65.4293C218.507 65.8261 219.094 66.0114 219.72 66.0114V64.0114C219.506 64.0114 219.371 63.9552 219.263 63.869L218.012 65.4293ZM219.72 66.0114C220.214 66.0114 220.691 65.8965 221.121 65.6412L220.1 63.9213C220.014 63.9728 219.897 64.0114 219.72 64.0114V66.0114ZM221.124 65.6396C221.542 65.3894 221.872 65.0416 222.104 64.6141L220.345 63.6615C220.281 63.7794 220.202 63.8606 220.098 63.9229L221.124 65.6396ZM222.1 64.6211C222.342 64.1831 222.45 63.7021 222.45 63.2045H220.45C220.45 63.4059 220.408 63.547 220.349 63.6545L222.1 64.6211ZM222.45 63.2045C222.45 62.7008 222.34 62.2146 222.096 61.7717L220.344 62.7369C220.407 62.8508 220.45 62.9981 220.45 63.2045H222.45ZM222.096 61.7717C221.857 61.3387 221.52 60.988 221.093 60.7365L220.077 62.4595C220.191 62.5262 220.276 62.613 220.344 62.7369L222.096 61.7717ZM221.097 60.7389C220.661 60.4789 220.176 60.3593 219.673 60.3551L219.657 62.3551C219.847 62.3566 219.976 62.3989 220.073 62.4571L221.097 60.7389ZM219.665 60.3551C219.284 60.3551 218.909 60.421 218.546 60.5448L219.19 62.4381C219.36 62.3801 219.517 62.3551 219.665 62.3551V60.3551ZM218.546 60.5448C218.185 60.6677 217.841 60.8462 217.553 61.1049L218.888 62.594C218.929 62.5572 219.017 62.4971 219.19 62.4381L218.546 60.5448ZM218.367 60.8603L217.161 60.6813L216.867 62.6596L218.073 62.8386L218.367 60.8603ZM218.008 61.7812L218.498 57.3835L216.51 57.162L216.02 61.5597L218.008 61.7812ZM217.504 58.2727H222.303V56.2727H217.504V58.2727ZM221.303 57.2727V58.402H223.303V57.2727H221.303ZM222.303 57.402H218.599V59.402H222.303V57.402ZM217.606 58.2893L217.329 60.731L219.316 60.9565L219.593 58.5147L217.606 58.2893ZM218.322 61.8438H218.374V59.8438H218.322V61.8438ZM219.069 61.5627C219.122 61.5107 219.226 61.4361 219.418 61.3608L218.685 59.5C218.313 59.6463 217.966 59.8472 217.679 60.1248L219.069 61.5627ZM219.414 61.3621C219.576 61.2992 219.756 61.2642 219.963 61.2642V59.2642C219.523 59.2642 219.095 59.34 218.688 59.4987L219.414 61.3621ZM219.963 61.2642C220.328 61.2642 220.618 61.3489 220.862 61.4973L221.903 59.7896C221.317 59.4323 220.66 59.2642 219.963 59.2642V61.2642ZM220.864 61.4989C221.127 61.6582 221.333 61.8721 221.489 62.1578L223.244 61.2001C222.923 60.6109 222.472 60.1344 221.9 59.788L220.864 61.4989ZM221.492 62.1646C221.64 62.4297 221.727 62.7564 221.724 63.174L223.724 63.184C223.728 62.4709 223.576 61.7976 223.241 61.1933L221.492 62.1646ZM221.724 63.184C221.726 63.5893 221.637 63.9145 221.477 64.1879L223.205 65.1956C223.562 64.5826 223.728 63.8993 223.724 63.174L221.724 63.184ZM221.475 64.192C221.311 64.4767 221.087 64.699 220.785 64.8685L221.766 66.6116C222.374 66.2698 222.86 65.7932 223.207 65.1915L221.475 64.192ZM220.787 64.8675C220.503 65.0263 220.157 65.1193 219.72 65.1193V67.1193C220.454 67.1193 221.144 66.9595 221.764 66.6127L220.787 64.8675ZM227.319 66.1449L227.315 67.1449H227.319V66.1449ZM224.498 64.0739L225.434 63.7223L225.434 63.7223L224.498 64.0739ZM224.498 59.2159L223.564 58.8596L223.563 58.863L224.498 59.2159ZM225.598 57.6818L225.006 56.8756L225.004 56.8772L225.598 57.6818ZM229.037 57.6861L228.44 58.4884L228.443 58.4907L229.037 57.6861ZM230.132 59.2202L229.196 59.573L229.198 59.5778L230.132 59.2202ZM230.136 64.0781L231.072 64.431L231.072 64.4297L230.136 64.0781ZM229.041 65.6165L229.635 66.4211L229.638 66.4188L229.041 65.6165ZM228.704 64.142L227.84 63.6395L227.838 63.6427L228.704 64.142ZM228.977 59.804L228.019 60.0908L228.021 60.0973L228.977 59.804ZM228.325 58.6619L227.644 59.3945L227.652 59.4015L228.325 58.6619ZM225.934 59.1392L225.069 58.6385L225.069 58.6385L225.934 59.1392ZM225.427 61.6406L224.427 61.638V61.6406H225.427ZM225.653 63.4858L224.695 63.7727L224.697 63.7791L225.653 63.4858ZM226.305 64.6236L225.628 65.3598L225.632 65.3635L226.305 64.6236ZM227.323 65.1449C226.833 65.1428 226.471 65.0172 226.187 64.8076L225 66.4168C225.67 66.9118 226.459 67.1413 227.315 67.1449L227.323 65.1449ZM226.187 64.8076C225.896 64.5925 225.634 64.2535 225.434 63.7223L223.562 64.4254C223.868 65.2409 224.337 65.9274 225 66.4168L226.187 64.8076ZM225.434 63.7223C225.235 63.1909 225.119 62.5056 225.119 61.6406H223.119C223.119 62.6734 223.256 63.6102 223.562 64.4254L225.434 63.7223ZM225.119 61.6406C225.119 60.7787 225.235 60.0967 225.434 59.5688L223.563 58.863C223.256 59.676 223.119 60.6105 223.119 61.6406H225.119ZM225.433 59.5722C225.634 59.0429 225.898 58.7031 226.192 58.4864L225.004 56.8772C224.343 57.3651 223.873 58.048 223.564 58.8596L225.433 59.5722ZM226.189 58.4881C226.477 58.2767 226.837 58.1534 227.319 58.1534V56.1534C226.466 56.1534 225.678 56.3823 225.006 56.8756L226.189 58.4881ZM227.319 58.1534C227.799 58.1534 228.156 58.2772 228.44 58.4884L229.634 56.8838C228.963 56.3848 228.174 56.1534 227.319 56.1534V58.1534ZM228.443 58.4907C228.735 58.7066 228.997 59.0451 229.196 59.573L231.067 58.8673C230.761 58.0544 230.292 57.3701 229.63 56.8815L228.443 58.4907ZM229.198 59.5778C229.398 60.101 229.515 60.7795 229.515 61.6406H231.515C231.515 60.6097 231.377 59.6746 231.066 58.8625L229.198 59.5778ZM229.515 61.6406C229.515 62.5089 229.399 63.1955 229.2 63.7266L231.072 64.4297C231.378 63.6142 231.515 62.6758 231.515 61.6406H229.515ZM229.2 63.7253C229.001 64.2536 228.739 64.5949 228.444 64.8142L229.638 66.4188C230.298 65.9278 230.765 65.2436 231.072 64.431L229.2 63.7253ZM228.447 64.8119C228.164 65.021 227.805 65.1449 227.319 65.1449V67.1449C228.174 67.1449 228.963 66.9165 229.635 66.4211L228.447 64.8119ZM227.319 66.0071C228.319 66.0071 229.087 65.4807 229.571 64.6414L227.838 63.6427C227.657 63.9568 227.501 64.0071 227.319 64.0071V66.0071ZM229.569 64.6446C230.032 63.8472 230.207 62.8077 230.207 61.6406H228.207C228.207 62.6553 228.047 63.2835 227.84 63.6395L229.569 64.6446ZM230.207 61.6406C230.207 60.852 230.124 60.1344 229.933 59.5107L228.021 60.0973C228.136 60.4736 228.207 60.9803 228.207 61.6406H230.207ZM229.935 59.5171C229.751 58.9016 229.457 58.34 228.998 57.9223L227.652 59.4015C227.761 59.5009 227.902 59.7006 228.019 60.0908L229.935 59.5171ZM229.006 57.9294C228.537 57.4935 227.957 57.2699 227.319 57.2699V59.2699C227.46 59.2699 227.551 59.3076 227.644 59.3945L229.006 57.9294ZM227.319 57.2699C226.319 57.2699 225.553 57.8013 225.069 58.6385L226.8 59.6399C226.986 59.318 227.144 59.2699 227.319 59.2699V57.2699ZM225.069 58.6385C224.607 59.4363 224.43 60.473 224.427 61.638L226.427 61.6432C226.43 60.6321 226.591 60.0012 226.8 59.6399L225.069 58.6385ZM224.427 61.6406C224.427 62.4306 224.508 63.1486 224.695 63.7726L226.611 63.1989C226.497 62.8173 226.427 62.3052 226.427 61.6406H224.427ZM224.697 63.7791C224.884 64.3888 225.177 64.9447 225.628 65.3598L226.982 63.8874C226.871 63.7854 226.729 63.5828 226.609 63.1925L224.697 63.7791ZM225.632 65.3635C226.105 65.7936 226.686 66.0071 227.319 66.0071V64.0071C227.162 64.0071 227.067 63.965 226.978 63.8836L225.632 65.3635Z" fill="white" mask="url(#path-10-outside-2_32_76)"/>
<mask id="path-12-outside-3_32_76" maskUnits="userSpaceOnUse" x="94" y="56" width="17" height="12" fill="black">
<rect fill="white" x="94" y="56" width="17" height="12"/>
<path d="M95.8395 66V65.0455L98.7926 61.9858C99.108 61.6534 99.3679 61.3622 99.5724 61.1122C99.7798 60.8594 99.9347 60.6193 100.037 60.392C100.139 60.1648 100.19 59.9233 100.19 59.6676C100.19 59.3778 100.122 59.1278 99.9858 58.9176C99.8494 58.7045 99.6634 58.5412 99.4276 58.4276C99.1918 58.3111 98.9261 58.2528 98.6307 58.2528C98.3182 58.2528 98.0455 58.3168 97.8125 58.4446C97.5795 58.5724 97.4006 58.7528 97.2756 58.9858C97.1506 59.2187 97.0881 59.4915 97.0881 59.804H95.831C95.831 59.2727 95.9531 58.8082 96.1974 58.4105C96.4418 58.0128 96.777 57.7045 97.2031 57.4858C97.6293 57.2642 98.1136 57.1534 98.6562 57.1534C99.2045 57.1534 99.6875 57.2628 100.105 57.4815C100.526 57.6974 100.854 57.9929 101.089 58.3679C101.325 58.7401 101.443 59.1605 101.443 59.6293C101.443 59.9531 101.382 60.2699 101.26 60.5795C101.141 60.8892 100.932 61.2344 100.634 61.6151C100.335 61.9929 99.9205 62.4517 99.3892 62.9915L97.6548 64.8068V64.8707H101.584V66H95.8395ZM106.237 66.1449C105.564 66.142 104.989 65.9645 104.511 65.6122C104.034 65.2599 103.669 64.7472 103.416 64.0739C103.163 63.4006 103.037 62.5895 103.037 61.6406C103.037 60.6946 103.163 59.8864 103.416 59.2159C103.672 58.5455 104.038 58.0341 104.516 57.6818C104.996 57.3295 105.57 57.1534 106.237 57.1534C106.905 57.1534 107.477 57.331 107.955 57.6861C108.432 58.0384 108.797 58.5497 109.05 59.2202C109.305 59.8878 109.433 60.6946 109.433 61.6406C109.433 62.5923 109.307 63.4048 109.054 64.0781C108.801 64.7486 108.436 65.2614 107.959 65.6165C107.482 65.9688 106.908 66.1449 106.237 66.1449ZM106.237 65.0071C106.828 65.0071 107.29 64.7188 107.622 64.142C107.957 63.5653 108.125 62.7315 108.125 61.6406C108.125 60.9162 108.048 60.304 107.895 59.804C107.744 59.3011 107.527 58.9205 107.243 58.6619C106.962 58.4006 106.626 58.2699 106.237 58.2699C105.649 58.2699 105.188 58.5597 104.852 59.1392C104.517 59.7187 104.348 60.5526 104.345 61.6406C104.345 62.3679 104.42 62.983 104.571 63.4858C104.724 63.9858 104.942 64.3651 105.223 64.6236C105.504 64.8793 105.842 65.0071 106.237 65.0071Z"/>
</mask>
<path d="M95.8395 66V65.0455L98.7926 61.9858C99.108 61.6534 99.3679 61.3622 99.5724 61.1122C99.7798 60.8594 99.9347 60.6193 100.037 60.392C100.139 60.1648 100.19 59.9233 100.19 59.6676C100.19 59.3778 100.122 59.1278 99.9858 58.9176C99.8494 58.7045 99.6634 58.5412 99.4276 58.4276C99.1918 58.3111 98.9261 58.2528 98.6307 58.2528C98.3182 58.2528 98.0455 58.3168 97.8125 58.4446C97.5795 58.5724 97.4006 58.7528 97.2756 58.9858C97.1506 59.2187 97.0881 59.4915 97.0881 59.804H95.831C95.831 59.2727 95.9531 58.8082 96.1974 58.4105C96.4418 58.0128 96.777 57.7045 97.2031 57.4858C97.6293 57.2642 98.1136 57.1534 98.6562 57.1534C99.2045 57.1534 99.6875 57.2628 100.105 57.4815C100.526 57.6974 100.854 57.9929 101.089 58.3679C101.325 58.7401 101.443 59.1605 101.443 59.6293C101.443 59.9531 101.382 60.2699 101.26 60.5795C101.141 60.8892 100.932 61.2344 100.634 61.6151C100.335 61.9929 99.9205 62.4517 99.3892 62.9915L97.6548 64.8068V64.8707H101.584V66H95.8395ZM106.237 66.1449C105.564 66.142 104.989 65.9645 104.511 65.6122C104.034 65.2599 103.669 64.7472 103.416 64.0739C103.163 63.4006 103.037 62.5895 103.037 61.6406C103.037 60.6946 103.163 59.8864 103.416 59.2159C103.672 58.5455 104.038 58.0341 104.516 57.6818C104.996 57.3295 105.57 57.1534 106.237 57.1534C106.905 57.1534 107.477 57.331 107.955 57.6861C108.432 58.0384 108.797 58.5497 109.05 59.2202C109.305 59.8878 109.433 60.6946 109.433 61.6406C109.433 62.5923 109.307 63.4048 109.054 64.0781C108.801 64.7486 108.436 65.2614 107.959 65.6165C107.482 65.9688 106.908 66.1449 106.237 66.1449ZM106.237 65.0071C106.828 65.0071 107.29 64.7188 107.622 64.142C107.957 63.5653 108.125 62.7315 108.125 61.6406C108.125 60.9162 108.048 60.304 107.895 59.804C107.744 59.3011 107.527 58.9205 107.243 58.6619C106.962 58.4006 106.626 58.2699 106.237 58.2699C105.649 58.2699 105.188 58.5597 104.852 59.1392C104.517 59.7187 104.348 60.5526 104.345 61.6406C104.345 62.3679 104.42 62.983 104.571 63.4858C104.724 63.9858 104.942 64.3651 105.223 64.6236C105.504 64.8793 105.842 65.0071 106.237 65.0071Z" fill="#696F8C"/>
<path d="M95.8395 66H94.8395V67H95.8395V66ZM95.8395 65.0455L95.12 64.351L94.8395 64.6416V65.0455H95.8395ZM98.7926 61.9858L99.5122 62.6803L99.5181 62.6741L98.7926 61.9858ZM99.5724 61.1122L98.7993 60.478L98.7985 60.479L99.5724 61.1122ZM99.9858 58.9176L99.1435 59.4567L99.1468 59.4618L99.9858 58.9176ZM99.4276 58.4276L98.9846 59.3242L98.9934 59.3284L99.4276 58.4276ZM97.0881 59.804V60.804H98.0881V59.804H97.0881ZM95.831 59.804H94.831V60.804H95.831V59.804ZM96.1974 58.4105L97.0495 58.9339L97.0495 58.9339L96.1974 58.4105ZM97.2031 57.4858L97.6598 58.3754L97.6645 58.373L97.2031 57.4858ZM100.105 57.4815L99.6411 58.3674L99.6483 58.3711L100.105 57.4815ZM101.089 58.3679L100.243 58.9002L100.245 58.9031L101.089 58.3679ZM101.26 60.5795L100.33 60.2126L100.327 60.22L101.26 60.5795ZM100.634 61.6151L101.418 62.2347L101.421 62.2318L100.634 61.6151ZM99.3892 62.9915L98.6765 62.29L98.6713 62.2953L98.6662 62.3007L99.3892 62.9915ZM97.6548 64.8068L96.9318 64.116L96.6548 64.4059V64.8068H97.6548ZM97.6548 64.8707H96.6548V65.8707H97.6548V64.8707ZM101.584 64.8707H102.584V63.8707H101.584V64.8707ZM101.584 66V67H102.584V66H101.584ZM96.8395 66V65.0455H94.8395V66H96.8395ZM96.559 65.7399L99.5121 62.6803L98.0731 61.2913L95.12 64.351L96.559 65.7399ZM99.5181 62.6741C99.8439 62.3306 100.121 62.0204 100.346 61.7455L98.7985 60.479C98.6143 60.7041 98.372 60.9762 98.0672 61.2975L99.5181 62.6741ZM100.346 61.7464C100.593 61.4453 100.801 61.1306 100.949 60.8024L99.125 59.9817C99.0681 60.1081 98.9671 60.2735 98.7993 60.478L100.346 61.7464ZM100.949 60.8024C101.111 60.4427 101.19 60.061 101.19 59.6676H99.1903C99.1903 59.7856 99.1677 59.8868 99.125 59.9817L100.949 60.8024ZM101.19 59.6676C101.19 59.2156 101.082 58.7698 100.825 58.3734L99.1468 59.4618C99.1624 59.4859 99.1903 59.5401 99.1903 59.6676H101.19ZM100.828 58.3786C100.588 58.0038 100.258 57.7179 99.8617 57.5267L98.9934 59.3284C99.0684 59.3645 99.1106 59.4053 99.1435 59.4567L100.828 58.3786ZM99.8704 57.531C99.4807 57.3385 99.0606 57.2528 98.6307 57.2528V59.2528C98.7916 59.2528 98.9028 59.2837 98.9847 59.3241L99.8704 57.531ZM98.6307 57.2528C98.1797 57.2528 97.7358 57.346 97.3314 57.5679L98.2936 59.3213C98.3551 59.2875 98.4567 59.2528 98.6307 59.2528V57.2528ZM97.3314 57.5679C96.9298 57.7883 96.6114 58.1086 96.3944 58.513L98.1567 59.4586C98.1898 59.3971 98.2293 59.3565 98.2936 59.3213L97.3314 57.5679ZM96.3944 58.513C96.1783 58.9157 96.0881 59.3565 96.0881 59.804H98.0881C98.0881 59.6264 98.1228 59.5218 98.1567 59.4586L96.3944 58.513ZM97.0881 58.804H95.831V60.804H97.0881V58.804ZM96.831 59.804C96.831 59.4314 96.9147 59.1533 97.0495 58.9339L95.3454 57.8871C94.9915 58.4631 94.831 59.114 94.831 59.804H96.831ZM97.0495 58.9339C97.1954 58.6964 97.392 58.5129 97.6598 58.3754L96.7464 56.5962C96.162 56.8962 95.6881 57.3292 95.3454 57.8871L97.0495 58.9339ZM97.6645 58.373C97.9305 58.2347 98.2532 58.1534 98.6562 58.1534V56.1534C97.9741 56.1534 97.328 56.2937 96.7418 56.5986L97.6645 58.373ZM98.6562 58.1534C99.0693 58.1534 99.3884 58.235 99.6411 58.3674L100.569 56.5957C99.9866 56.2906 99.3397 56.1534 98.6562 56.1534V58.1534ZM99.6483 58.3711C99.9203 58.5107 100.109 58.6873 100.243 58.9002L101.936 57.8356C101.598 57.2985 101.131 56.8841 100.562 56.592L99.6483 58.3711ZM100.245 58.9031C100.373 59.1048 100.443 59.3373 100.443 59.6293H102.443C102.443 58.9837 102.278 58.3753 101.934 57.8327L100.245 58.9031ZM100.443 59.6293C100.443 59.824 100.407 60.0165 100.33 60.2126L102.19 60.9465C102.357 60.5233 102.443 60.0823 102.443 59.6293H100.443ZM100.327 60.22C100.255 60.4054 100.109 60.6634 99.8464 60.9983L101.421 62.2318C101.755 61.8054 102.026 61.373 102.193 60.9391L100.327 60.22ZM99.8486 60.9954C99.5818 61.3334 99.1949 61.7633 98.6765 62.29L100.102 63.6929C100.646 63.1401 101.089 62.6524 101.418 62.2347L99.8486 60.9954ZM98.6662 62.3007L96.9318 64.116L98.3779 65.4976L100.112 63.6823L98.6662 62.3007ZM96.6548 64.8068V64.8707H98.6548V64.8068H96.6548ZM97.6548 65.8707H101.584V63.8707H97.6548V65.8707ZM100.584 64.8707V66H102.584V64.8707H100.584ZM101.584 65H95.8395V67H101.584V65ZM106.237 66.1449L106.233 67.1449H106.237V66.1449ZM103.416 64.0739L104.352 63.7223L104.352 63.7223L103.416 64.0739ZM103.416 59.2159L102.482 58.8596L102.481 58.863L103.416 59.2159ZM104.516 57.6818L103.924 56.8756L103.922 56.8772L104.516 57.6818ZM107.955 57.6861L107.358 58.4884L107.361 58.4907L107.955 57.6861ZM109.05 59.2202L108.114 59.573L108.116 59.5778L109.05 59.2202ZM109.054 64.0781L109.99 64.431L109.99 64.4297L109.054 64.0781ZM107.959 65.6165L108.553 66.4211L108.556 66.4188L107.959 65.6165ZM107.622 64.142L106.758 63.6395L106.756 63.6427L107.622 64.142ZM107.895 59.804L106.937 60.0908L106.939 60.0973L107.895 59.804ZM107.243 58.6619L106.562 59.3945L106.57 59.4015L107.243 58.6619ZM104.852 59.1392L103.987 58.6385L103.987 58.6385L104.852 59.1392ZM104.345 61.6406L103.345 61.638V61.6406H104.345ZM104.571 63.4858L103.613 63.7727L103.615 63.7791L104.571 63.4858ZM105.223 64.6236L104.546 65.3598L104.55 65.3635L105.223 64.6236ZM106.241 65.1449C105.751 65.1428 105.389 65.0172 105.105 64.8076L103.918 66.4168C104.588 66.9118 105.377 67.1413 106.233 67.1449L106.241 65.1449ZM105.105 64.8076C104.814 64.5925 104.552 64.2535 104.352 63.7223L102.48 64.4254C102.786 65.2409 103.254 65.9274 103.918 66.4168L105.105 64.8076ZM104.352 63.7223C104.153 63.1909 104.037 62.5056 104.037 61.6406H102.037C102.037 62.6734 102.174 63.6102 102.48 64.4254L104.352 63.7223ZM104.037 61.6406C104.037 60.7787 104.153 60.0967 104.352 59.5688L102.481 58.863C102.174 59.676 102.037 60.6105 102.037 61.6406H104.037ZM104.351 59.5722C104.552 59.0429 104.816 58.7031 105.109 58.4864L103.922 56.8772C103.261 57.3651 102.791 58.048 102.482 58.8596L104.351 59.5722ZM105.107 58.4881C105.395 58.2767 105.755 58.1534 106.237 58.1534V56.1534C105.384 56.1534 104.596 56.3823 103.924 56.8756L105.107 58.4881ZM106.237 58.1534C106.717 58.1534 107.074 58.2772 107.358 58.4884L108.551 56.8838C107.881 56.3848 107.092 56.1534 106.237 56.1534V58.1534ZM107.361 58.4907C107.653 58.7066 107.915 59.0451 108.114 59.573L109.985 58.8673C109.679 58.0544 109.21 57.3701 108.548 56.8815L107.361 58.4907ZM108.116 59.5778C108.316 60.101 108.433 60.7795 108.433 61.6406H110.433C110.433 60.6097 110.295 59.6746 109.984 58.8625L108.116 59.5778ZM108.433 61.6406C108.433 62.5089 108.317 63.1955 108.118 63.7266L109.99 64.4297C110.296 63.6142 110.433 62.6758 110.433 61.6406H108.433ZM108.118 63.7253C107.919 64.2536 107.657 64.5949 107.362 64.8142L108.556 66.4188C109.216 65.9278 109.683 65.2436 109.99 64.431L108.118 63.7253ZM107.365 64.8119C107.082 65.021 106.723 65.1449 106.237 65.1449V67.1449C107.092 67.1449 107.881 66.9165 108.553 66.4211L107.365 64.8119ZM106.237 66.0071C107.237 66.0071 108.005 65.4807 108.489 64.6414L106.756 63.6427C106.575 63.9568 106.419 64.0071 106.237 64.0071V66.0071ZM108.487 64.6446C108.95 63.8472 109.125 62.8077 109.125 61.6406H107.125C107.125 62.6553 106.965 63.2835 106.758 63.6395L108.487 64.6446ZM109.125 61.6406C109.125 60.852 109.042 60.1344 108.851 59.5107L106.939 60.0973C107.054 60.4736 107.125 60.9803 107.125 61.6406H109.125ZM108.853 59.5171C108.669 58.9016 108.375 58.34 107.916 57.9223L106.57 59.4015C106.679 59.5009 106.82 59.7006 106.937 60.0908L108.853 59.5171ZM107.924 57.9294C107.455 57.4935 106.875 57.2699 106.237 57.2699V59.2699C106.378 59.2699 106.469 59.3076 106.562 59.3945L107.924 57.9294ZM106.237 57.2699C105.237 57.2699 104.471 57.8013 103.987 58.6385L105.718 59.6399C105.904 59.318 106.062 59.2699 106.237 59.2699V57.2699ZM103.987 58.6385C103.525 59.4363 103.348 60.473 103.345 61.638L105.345 61.6432C105.348 60.6321 105.509 60.0012 105.718 59.6399L103.987 58.6385ZM103.345 61.6406C103.345 62.4306 103.426 63.1486 103.613 63.7726L105.529 63.1989C105.415 62.8173 105.345 62.3052 105.345 61.6406H103.345ZM103.615 63.7791C103.802 64.3888 104.095 64.9447 104.546 65.3598L105.9 63.8874C105.789 63.7854 105.647 63.5828 105.527 63.1925L103.615 63.7791ZM104.55 65.3635C105.023 65.7936 105.604 66.0071 106.237 66.0071V64.0071C106.08 64.0071 105.985 63.965 105.896 63.8836L104.55 65.3635Z" fill="white" mask="url(#path-12-outside-3_32_76)"/>
<mask id="path-14-outside-4_32_76" maskUnits="userSpaceOnUse" x="0" y="56" width="7" height="11" fill="black">
<rect fill="white" y="56" width="7" height="11"/>
<path d="M5.15057 57.2727V66H3.82955V58.5938H3.77841L1.69034 59.9574V58.696L3.8679 57.2727H5.15057Z"/>
</mask>
<path d="M5.15057 57.2727V66H3.82955V58.5938H3.77841L1.69034 59.9574V58.696L3.8679 57.2727H5.15057Z" fill="#696F8C"/>
<path d="M5.15057 57.2727H6.15057V56.2727H5.15057V57.2727ZM5.15057 66V67H6.15057V66H5.15057ZM3.82955 66H2.82955V67H3.82955V66ZM3.82955 58.5938H4.82955V57.5938H3.82955V58.5938ZM3.77841 58.5938V57.5938H3.4808L3.23162 57.7565L3.77841 58.5938ZM1.69034 59.9574H0.690341V61.8048L2.23713 60.7947L1.69034 59.9574ZM1.69034 58.696L1.14322 57.859L0.690341 58.155V58.696H1.69034ZM3.8679 57.2727V56.2727H3.57008L3.32078 56.4357L3.8679 57.2727ZM4.15057 57.2727V66H6.15057V57.2727H4.15057ZM5.15057 65H3.82955V67H5.15057V65ZM4.82955 66V58.5938H2.82955V66H4.82955ZM3.82955 57.5938H3.77841V59.5938H3.82955V57.5938ZM3.23162 57.7565L1.14355 59.1201L2.23713 60.7947L4.3252 59.431L3.23162 57.7565ZM2.69034 59.9574V58.696H0.690341V59.9574H2.69034ZM2.23746 59.5331L4.41501 58.1098L3.32078 56.4357L1.14322 57.859L2.23746 59.5331ZM3.8679 58.2727H5.15057V56.2727H3.8679V58.2727Z" fill="white" mask="url(#path-14-outside-4_32_76)"/>
<defs>
<linearGradient id="paint0_linear_32_76" x1="1" y1="34" x2="281" y2="34" gradientUnits="userSpaceOnUse">
<stop offset="0.1" stop-color="#2E8DFF"/>
<stop offset="0.4" stop-color="#68B500"/>
<stop offset="0.8" stop-color="#F7C000"/>
<stop offset="1" stop-color="#FF0000"/>
</linearGradient>
</defs>
</svg>
